# xmcd
#
# Track frame offsets:
#	150
#	15435
#	35020
#	54230
#	69437
#	83907
#	102997
#	121565
#	137587
#	152945
#	172335
#	191525
#	206597
#	221067
#	240167
#	258702
#
# Disc length: 3663 seconds
#
# Revision: 1
# Processed by: cddbd v1.5.2PL0 Copyright (c) Steve Scherf et al.
# Submitted via: audiograbber 1.83.01
#
DISCID=db0e4d10
DTITLE=Reba McEntire - SC2013
DYEAR=1900
DGENRE=Country
TTITLE0=McEntire, Reba - The Greatest Man I Never Knew
TTITLE1=McEntire, Reba - She Thinks His Name Was John
TTITLE2=McEntire, Reba - Is There Life Out There
TTITLE3=McEntire, Reba - Little Rock
TTITLE4=McEntire, Reba - Sunday Kind Of Love
TTITLE5=McEntire, Reba - For My Broken Heart
TTITLE6=McEntire, Reba - New Fool At An Old Game
TTITLE7=McEntire, Reba - Whoever's In New England
TTITLE8=McEntire, Reba - The Greatest Man I Never Knew
TTITLE9=McEntire, Reba - She Thinks His Name Was John
TTITLE10=McEntire, Reba - Is There Life Out There
TTITLE11=McEntire, Reba - Little Rock
TTITLE12=McEntire, Reba - Sunday Kind Of Love
TTITLE13=McEntire, Reba - For My Broken Heart
TTITLE14=McEntire, Reba - New Fool At An Old Game
TTITLE15=McEntire, Reba - Whoever's In New England
EXTD=
EXTT0=
EXTT1=
EXTT2=
EXTT3=
EXTT4=
EXTT5=
EXTT6=
EXTT7=
EXTT8=
EXTT9=
EXTT10=
EXTT11=
EXTT12=
EXTT13=
EXTT14=
EXTT15=
PLAYORDER=
